<mxfile host="app.diagrams.net" modified="2023-09-08T07:45:22.188Z" agent="Mozilla/5.0 (Macintosh; Intel Mac OS X 10_15_7) AppleWebKit/537.36 (KHTML, like Gecko) Chrome/116.0.0.0 Safari/537.36" etag="FdknrpDXwjZdzo9jD8sF" version="21.7.2" type="github">
  <diagram name="Page-1" id="Hn_OdSKpufDqPztOHCR3">
    <mxGraphModel dx="1306" dy="747" grid="1" gridSize="10" guides="1" tooltips="1" connect="1" arrows="1" fold="1" page="1" pageScale="1" pageWidth="827" pageHeight="1169" math="0" shadow="0">
      <root>
        <mxCell id="0" />
        <mxCell id="1" parent="0" />
        <mxCell id="yI6Fd60t6W1Wl35xFFtk-1" value="" style="rounded=0;whiteSpace=wrap;html=1;" vertex="1" parent="1">
          <mxGeometry x="80" y="80" width="640" height="190" as="geometry" />
        </mxCell>
        <mxCell id="yI6Fd60t6W1Wl35xFFtk-2" value="Loft" style="rounded=0;whiteSpace=wrap;html=1;fillColor=#647687;fontColor=#ffffff;strokeColor=#314354;" vertex="1" parent="1">
          <mxGeometry x="80" y="80" width="160" height="190" as="geometry" />
        </mxCell>
        <mxCell id="yI6Fd60t6W1Wl35xFFtk-3" value="Loft" style="rounded=0;whiteSpace=wrap;html=1;fillColor=#647687;fontColor=#ffffff;strokeColor=#314354;" vertex="1" parent="1">
          <mxGeometry x="240" y="80" width="160" height="190" as="geometry" />
        </mxCell>
        <mxCell id="yI6Fd60t6W1Wl35xFFtk-4" value="Loft" style="rounded=0;whiteSpace=wrap;html=1;fillColor=#647687;fontColor=#ffffff;strokeColor=#314354;" vertex="1" parent="1">
          <mxGeometry x="400" y="80" width="160" height="190" as="geometry" />
        </mxCell>
        <mxCell id="yI6Fd60t6W1Wl35xFFtk-5" value="Loft" style="rounded=0;whiteSpace=wrap;html=1;fillColor=#647687;fontColor=#ffffff;strokeColor=#314354;" vertex="1" parent="1">
          <mxGeometry x="560" y="80" width="160" height="190" as="geometry" />
        </mxCell>
        <mxCell id="yI6Fd60t6W1Wl35xFFtk-6" value="" style="rounded=0;whiteSpace=wrap;html=1;" vertex="1" parent="1">
          <mxGeometry x="80" y="270" width="640" height="90" as="geometry" />
        </mxCell>
        <mxCell id="yI6Fd60t6W1Wl35xFFtk-7" value="Door" style="rounded=0;whiteSpace=wrap;html=1;fillColor=#bac8d3;strokeColor=#23445d;" vertex="1" parent="1">
          <mxGeometry x="80" y="270" width="160" height="90" as="geometry" />
        </mxCell>
        <mxCell id="yI6Fd60t6W1Wl35xFFtk-8" value="Door" style="rounded=0;whiteSpace=wrap;html=1;fillColor=#bac8d3;strokeColor=#23445d;" vertex="1" parent="1">
          <mxGeometry x="240" y="270" width="160" height="90" as="geometry" />
        </mxCell>
        <mxCell id="yI6Fd60t6W1Wl35xFFtk-9" value="Door" style="rounded=0;whiteSpace=wrap;html=1;fillColor=#bac8d3;strokeColor=#23445d;" vertex="1" parent="1">
          <mxGeometry x="400" y="270" width="160" height="90" as="geometry" />
        </mxCell>
        <mxCell id="yI6Fd60t6W1Wl35xFFtk-10" value="Open shelf" style="rounded=0;whiteSpace=wrap;html=1;fillColor=#647687;fontColor=#ffffff;strokeColor=#314354;" vertex="1" parent="1">
          <mxGeometry x="560" y="270" width="160" height="90" as="geometry" />
        </mxCell>
        <mxCell id="yI6Fd60t6W1Wl35xFFtk-11" value="" style="rounded=0;whiteSpace=wrap;html=1;" vertex="1" parent="1">
          <mxGeometry x="80" y="360" width="640" height="160" as="geometry" />
        </mxCell>
        <mxCell id="yI6Fd60t6W1Wl35xFFtk-12" value="" style="rounded=0;whiteSpace=wrap;html=1;fillColor=#647687;fontColor=#ffffff;strokeColor=#314354;" vertex="1" parent="1">
          <mxGeometry x="80" y="520" width="640" height="10" as="geometry" />
        </mxCell>
        <mxCell id="yI6Fd60t6W1Wl35xFFtk-13" value="" style="rounded=0;whiteSpace=wrap;html=1;" vertex="1" parent="1">
          <mxGeometry x="80" y="530" width="640" height="190" as="geometry" />
        </mxCell>
        <mxCell id="yI6Fd60t6W1Wl35xFFtk-14" value="" style="rounded=0;whiteSpace=wrap;html=1;fillColor=#bac8d3;strokeColor=#23445d;" vertex="1" parent="1">
          <mxGeometry x="530" y="530" width="190" height="60" as="geometry" />
        </mxCell>
        <mxCell id="yI6Fd60t6W1Wl35xFFtk-15" value="" style="rounded=0;whiteSpace=wrap;html=1;fillColor=#bac8d3;strokeColor=#23445d;" vertex="1" parent="1">
          <mxGeometry x="530" y="590" width="190" height="130" as="geometry" />
        </mxCell>
        <mxCell id="yI6Fd60t6W1Wl35xFFtk-16" value="" style="rounded=0;whiteSpace=wrap;html=1;fillColor=#647687;fontColor=#ffffff;strokeColor=#314354;" vertex="1" parent="1">
          <mxGeometry x="80" y="530" width="10" height="190" as="geometry" />
        </mxCell>
        <mxCell id="yI6Fd60t6W1Wl35xFFtk-17" value="" style="rounded=0;whiteSpace=wrap;html=1;fillColor=#647687;fontColor=#ffffff;strokeColor=#314354;" vertex="1" parent="1">
          <mxGeometry x="520" y="530" width="10" height="190" as="geometry" />
        </mxCell>
        <mxCell id="yI6Fd60t6W1Wl35xFFtk-19" value="" style="rounded=0;whiteSpace=wrap;html=1;" vertex="1" parent="1">
          <mxGeometry x="540" y="625" width="10" height="60" as="geometry" />
        </mxCell>
        <mxCell id="yI6Fd60t6W1Wl35xFFtk-21" value="" style="rounded=0;whiteSpace=wrap;html=1;" vertex="1" parent="1">
          <mxGeometry x="590" y="540" width="70" height="10" as="geometry" />
        </mxCell>
        <mxCell id="yI6Fd60t6W1Wl35xFFtk-22" value="" style="rounded=0;whiteSpace=wrap;html=1;" vertex="1" parent="1">
          <mxGeometry x="220" y="145" width="10" height="60" as="geometry" />
        </mxCell>
        <mxCell id="yI6Fd60t6W1Wl35xFFtk-23" value="" style="rounded=0;whiteSpace=wrap;html=1;" vertex="1" parent="1">
          <mxGeometry x="250" y="145" width="10" height="60" as="geometry" />
        </mxCell>
        <mxCell id="yI6Fd60t6W1Wl35xFFtk-24" value="" style="rounded=0;whiteSpace=wrap;html=1;" vertex="1" parent="1">
          <mxGeometry x="540" y="145" width="10" height="60" as="geometry" />
        </mxCell>
        <mxCell id="yI6Fd60t6W1Wl35xFFtk-25" value="" style="rounded=0;whiteSpace=wrap;html=1;" vertex="1" parent="1">
          <mxGeometry x="570" y="145" width="10" height="60" as="geometry" />
        </mxCell>
        <mxCell id="yI6Fd60t6W1Wl35xFFtk-26" value="" style="rounded=0;whiteSpace=wrap;html=1;" vertex="1" parent="1">
          <mxGeometry x="80" y="350" width="160" height="10" as="geometry" />
        </mxCell>
        <mxCell id="yI6Fd60t6W1Wl35xFFtk-29" value="" style="rounded=0;whiteSpace=wrap;html=1;" vertex="1" parent="1">
          <mxGeometry x="240" y="350" width="160" height="10" as="geometry" />
        </mxCell>
        <mxCell id="yI6Fd60t6W1Wl35xFFtk-30" value="" style="rounded=0;whiteSpace=wrap;html=1;" vertex="1" parent="1">
          <mxGeometry x="400" y="350" width="160" height="10" as="geometry" />
        </mxCell>
        <mxCell id="yI6Fd60t6W1Wl35xFFtk-34" value="" style="rounded=0;whiteSpace=wrap;html=1;" vertex="1" parent="1">
          <mxGeometry x="80" y="760" width="640" height="190" as="geometry" />
        </mxCell>
        <mxCell id="yI6Fd60t6W1Wl35xFFtk-35" value="Loft" style="rounded=0;whiteSpace=wrap;html=1;fillColor=#647687;fontColor=#ffffff;strokeColor=#314354;" vertex="1" parent="1">
          <mxGeometry x="80" y="760" width="160" height="190" as="geometry" />
        </mxCell>
        <mxCell id="yI6Fd60t6W1Wl35xFFtk-36" value="Loft" style="rounded=0;whiteSpace=wrap;html=1;fillColor=#647687;fontColor=#ffffff;strokeColor=#314354;" vertex="1" parent="1">
          <mxGeometry x="240" y="760" width="160" height="190" as="geometry" />
        </mxCell>
        <mxCell id="yI6Fd60t6W1Wl35xFFtk-37" value="Loft" style="rounded=0;whiteSpace=wrap;html=1;fillColor=#647687;fontColor=#ffffff;strokeColor=#314354;" vertex="1" parent="1">
          <mxGeometry x="400" y="760" width="160" height="190" as="geometry" />
        </mxCell>
        <mxCell id="yI6Fd60t6W1Wl35xFFtk-38" value="Loft" style="rounded=0;whiteSpace=wrap;html=1;fillColor=#647687;fontColor=#ffffff;strokeColor=#314354;" vertex="1" parent="1">
          <mxGeometry x="560" y="760" width="160" height="190" as="geometry" />
        </mxCell>
        <mxCell id="yI6Fd60t6W1Wl35xFFtk-44" value="" style="rounded=0;whiteSpace=wrap;html=1;" vertex="1" parent="1">
          <mxGeometry x="220" y="830" width="10" height="60" as="geometry" />
        </mxCell>
        <mxCell id="yI6Fd60t6W1Wl35xFFtk-45" value="" style="rounded=0;whiteSpace=wrap;html=1;" vertex="1" parent="1">
          <mxGeometry x="250" y="830" width="10" height="60" as="geometry" />
        </mxCell>
        <mxCell id="yI6Fd60t6W1Wl35xFFtk-46" value="" style="rounded=0;whiteSpace=wrap;html=1;" vertex="1" parent="1">
          <mxGeometry x="540" y="825" width="10" height="60" as="geometry" />
        </mxCell>
        <mxCell id="yI6Fd60t6W1Wl35xFFtk-47" value="" style="rounded=0;whiteSpace=wrap;html=1;" vertex="1" parent="1">
          <mxGeometry x="570" y="825" width="10" height="60" as="geometry" />
        </mxCell>
      </root>
    </mxGraphModel>
  </diagram>
</mxfile>
